<svg width="18" height="19" viewBox="0 0 18 19" fill="none" xmlns="http://www.w3.org/2000/svg">
<g clip-path="url(#clip0_318_955)">
<path d="M12.75 1.58255H14.7525C15.177 1.57504 15.5894 1.72365 15.9116 2.00016C16.2337 2.27667 16.4431 2.66184 16.5 3.08255V8.33255C16.4431 8.75325 16.2337 9.13842 15.9116 9.41493C15.5894 9.69144 15.177 9.84005 14.7525 9.83255H12.75M7.50002 11.3325V14.3325C7.50002 14.9293 7.73708 15.5016 8.15903 15.9235C8.58099 16.3455 9.15329 16.5825 9.75002 16.5825L12.75 9.83255V1.58255H4.29002C3.92828 1.57846 3.57724 1.70524 3.30159 1.93954C3.02595 2.17384 2.84427 2.49987 2.79002 2.85755L1.75502 9.60755C1.72239 9.82253 1.73689 10.042 1.79752 10.2509C1.85814 10.4597 1.96345 10.6528 2.10613 10.8169C2.24881 10.981 2.42546 11.1121 2.62384 11.2011C2.82222 11.2902 3.03759 11.335 3.25502 11.3325H7.50002Z" stroke="#074EE8" stroke-width="2" stroke-linecap="round" stroke-linejoin="round"/>
</g>
<defs>
<clipPath id="clip0_318_955">
<rect width="18" height="18" fill="white" transform="translate(0 0.0825195)"/>
</clipPath>
</defs>
</svg>
