<svg width="24" height="24" viewBox="0 0 24 24" fill="none" xmlns="http://www.w3.org/2000/svg">
<path fill-rule="evenodd" clip-rule="evenodd" d="M12 2C12.5523 2 13 2.44772 13 3V4.06189C16.6187 4.51314 19.4869 7.38128 19.9381 11H21C21.5523 11 22 11.4477 22 12C22 12.5523 21.5523 13 21 13H19.9381C19.4869 16.6187 16.6187 19.4869 13 19.9381V21C13 21.5523 12.5523 22 12 22C11.4477 22 11 21.5523 11 21V19.9381C7.38128 19.4869 4.51314 16.6187 4.06189 13H3C2.44772 13 2 12.5523 2 12C2 11.4477 2.44772 11 3 11H4.06189C4.51314 7.38128 7.38128 4.51314 11 4.06189V3C11 2.44772 11.4477 2 12 2ZM12 6C8.68629 6 6 8.68629 6 12C6 15.3137 8.68629 18 12 18C15.3137 18 18 15.3137 18 12C18 8.68629 15.3137 6 12 6ZM12 12.5C12.2761 12.5 12.5 12.2761 12.5 12C12.5 11.7239 12.2761 11.5 12 11.5C11.7239 11.5 11.5 11.7239 11.5 12C11.5 12.2761 11.7239 12.5 12 12.5ZM10.5 12C10.5 11.1716 11.1716 10.5 12 10.5C12.8284 10.5 13.5 11.1716 13.5 12C13.5 12.8284 12.8284 13.5 12 13.5C11.1716 13.5 10.5 12.8284 10.5 12Z" fill="#323F4F"/>
</svg>
