<svg width="24" height="24" viewBox="0 0 24 24" fill="none" xmlns="http://www.w3.org/2000/svg">
<path d="M10.2879 1.79504C10.8111 0.734986 12.3235 0.734986 12.8467 1.79504L15.3388 6.84484L20.9117 7.65441C22.0817 7.82351 22.5489 9.26299 21.7023 10.0884L20.7458 11.0206C20.2411 10.7365 19.7024 10.5177 19.1425 10.3695L20.3653 9.17738L15.0281 8.40163C14.7992 8.36823 14.5818 8.27969 14.3948 8.14363C14.2077 8.00757 14.0565 7.82807 13.9543 7.62059L11.5668 2.7864L9.18032 7.62059C9.07805 7.82807 8.92688 8.00757 8.73981 8.14363C8.55275 8.27969 8.33541 8.36823 8.10653 8.40163L2.76926 9.17738L6.63111 12.942C6.9672 13.2696 7.12045 13.7421 7.04119 14.205L6.13015 19.5201L10.5152 17.215C10.531 17.7878 10.6187 18.3427 10.7667 18.8732L6.58355 21.0726C5.53724 21.6222 4.31337 20.7344 4.51206 19.5687L5.46431 14.019L1.4323 10.0874C0.585734 9.26299 1.05288 7.82457 2.22285 7.65441L7.7958 6.84484L10.2879 1.79504V1.79504ZM13.9765 13.2866C14.0553 13.5598 14.0782 13.8462 14.0438 14.1285C14.0094 14.4108 13.9184 14.6832 13.7762 14.9295C13.634 15.1758 13.4436 15.3909 13.2163 15.5619C12.989 15.7329 12.7296 15.8562 12.4535 15.9245L11.8363 16.0778C11.7373 16.7107 11.7395 17.3553 11.8426 17.9876L12.4133 18.125C12.6919 18.1921 12.9539 18.3151 13.1835 18.4866C13.413 18.6581 13.6053 18.8745 13.7486 19.1226C13.892 19.3707 13.9834 19.6454 14.0173 19.9299C14.0512 20.2145 14.0268 20.5029 13.9458 20.7777L13.7482 21.4446C14.2132 21.8526 14.7416 22.1845 15.3166 22.4191L15.8387 21.8706C16.0361 21.6629 16.2738 21.4975 16.5371 21.3845C16.8005 21.2715 17.0841 21.2132 17.3706 21.2132C17.6572 21.2132 17.9408 21.2715 18.2042 21.3845C18.4675 21.4975 18.7051 21.6629 18.9026 21.8706L19.4289 22.4254C20.0012 22.1932 20.5308 21.8674 20.9963 21.4616L20.787 20.7365C20.708 20.4632 20.685 20.1768 20.7193 19.8943C20.7536 19.6119 20.8446 19.3393 20.9868 19.0929C21.129 18.8464 21.3195 18.6313 21.5469 18.4602C21.7743 18.2892 22.0338 18.1658 22.31 18.0975L22.9272 17.9453C23.0263 17.3124 23.0242 16.6677 22.9209 16.0355L22.3502 15.8981C22.0716 15.831 21.8096 15.708 21.58 15.5365C21.3505 15.365 21.1582 15.1486 21.0148 14.9005C20.8715 14.6524 20.7801 14.3777 20.7462 14.0932C20.7123 13.8086 20.7366 13.5202 20.8177 13.2453L21.0153 12.5784C20.5503 12.1687 20.0202 11.8394 19.4469 11.604L18.9259 12.1515C18.7284 12.3593 18.4907 12.5248 18.2272 12.6379C17.9638 12.751 17.6801 12.8094 17.3934 12.8094C17.1067 12.8094 16.823 12.751 16.5595 12.6379C16.296 12.5248 16.0584 12.3593 15.8609 12.1515L15.3346 11.5966C14.7596 11.8291 14.2312 12.1567 13.7672 12.5615L13.9765 13.2866V13.2866ZM17.3817 18.5963C16.5362 18.5963 15.8493 17.8872 15.8493 17.011C15.8493 16.1359 16.5362 15.4257 17.3817 15.4257C18.2273 15.4257 18.9142 16.1359 18.9142 17.011C18.9142 17.8872 18.2273 18.5963 17.3817 18.5963Z" fill="#273238"/>
</svg>
