<svg width="20" height="20" viewBox="0 0 20 20" fill="none" xmlns="http://www.w3.org/2000/svg">
<path d="M2.79641 16.5573L2.03288 16.2429C1.56876 16.0483 1.25826 15.7114 1.10136 15.2324C0.943861 14.7533 0.969911 14.2817 1.17951 13.8176L2.79641 10.3143V16.5573ZM6.38953 18.5335C5.89548 18.5335 5.47239 18.3578 5.12026 18.0062C4.76874 17.6541 4.59297 17.231 4.59297 16.737V11.3473L6.97341 17.9497C7.01833 18.0545 7.06324 18.1557 7.10816 18.2533C7.15307 18.3503 7.21296 18.4437 7.28781 18.5335H6.38953ZM11.0157 18.4437C10.5366 18.6234 10.0725 18.6009 9.62334 18.3763C9.1742 18.1518 8.8598 17.7999 8.68014 17.3209L4.6828 6.36185C4.50314 5.88276 4.51812 5.41476 4.72771 4.95784C4.93731 4.50151 5.28165 4.191 5.76074 4.02632L12.5427 1.55605C13.0218 1.37639 13.4859 1.39885 13.9351 1.62342C14.3842 1.84799 14.6986 2.19982 14.8783 2.6789L18.8756 13.6379C19.0553 14.117 19.0403 14.585 18.8307 15.0419C18.6211 15.4983 18.2768 15.8088 17.7977 15.9734L11.0157 18.4437ZM9.08437 7.75418C9.33888 7.75418 9.55237 7.66795 9.72484 7.49548C9.89672 7.32361 9.98265 7.11041 9.98265 6.8559C9.98265 6.60139 9.89672 6.3879 9.72484 6.21543C9.55237 6.04356 9.33888 5.95762 9.08437 5.95762C8.82986 5.95762 8.61667 6.04356 8.4448 6.21543C8.27233 6.3879 8.18609 6.60139 8.18609 6.8559C8.18609 7.11041 8.27233 7.32361 8.4448 7.49548C8.61667 7.66795 8.82986 7.75418 9.08437 7.75418Z" fill="#577083"/>
</svg>
