<svg width="24" height="24" viewBox="0 0 24 24" fill="none" xmlns="http://www.w3.org/2000/svg">
<path d="M16.47 11.47L19.19 8.74998H9C7.60761 8.74998 6.27226 9.30311 5.28769 10.2877C4.30312 11.2722 3.75 12.6076 3.75 14C3.75 15.3924 4.30312 16.7277 5.28769 17.7123C6.27226 18.6969 7.60761 19.25 9 19.25H12V20.75H9C7.20979 20.75 5.4929 20.0388 4.22703 18.773C2.96116 17.5071 2.25 15.7902 2.25 14C2.25 12.2098 2.96116 10.4929 4.22703 9.22701C5.4929 7.96114 7.20979 7.24999 9 7.24999H19.1895L16.47 4.52999L17.53 3.46999L22.06 7.99998L17.53 12.53L16.47 11.47Z" fill="#323F4F"/>
<path fill-rule="evenodd" clip-rule="evenodd" d="M15.7629 11.47L17.53 13.2371L22.7671 7.99998L17.53 2.76288L15.7629 4.52995L17.9825 6.74999H9C7.07718 6.74999 5.23312 7.51382 3.87348 8.87346C2.51384 10.2331 1.75 12.0772 1.75 14C1.75 15.9228 2.51384 17.7669 3.87348 19.1265C5.23311 20.4861 7.07718 21.25 9 21.25H12.5V18.75H9C7.74022 18.75 6.53204 18.2495 5.64124 17.3587C4.75044 16.4679 4.25 15.2598 4.25 14C4.25 12.7402 4.75044 11.532 5.64124 10.6412C6.53204 9.75043 7.74022 9.24998 9 9.24998H17.9829L15.7629 11.47ZM19.19 8.74998H9C7.60761 8.74998 6.27226 9.30311 5.28769 10.2877C4.30312 11.2722 3.75 12.6076 3.75 14C3.75 15.3924 4.30312 16.7277 5.28769 17.7123C6.27226 18.6969 7.60761 19.25 9 19.25H12V20.75H9C7.20979 20.75 5.4929 20.0388 4.22703 18.773C2.96116 17.5071 2.25 15.7902 2.25 14C2.25 12.2098 2.96116 10.4929 4.22703 9.22701C5.4929 7.96114 7.20979 7.24999 9 7.24999H19.1895L16.47 4.52999L17.53 3.46999L22.06 7.99998L17.53 12.53L16.47 11.47L19.19 8.74998Z" fill="#323F4F"/>
</svg>
