<svg width="18" height="19" viewBox="0 0 18 19" fill="none" xmlns="http://www.w3.org/2000/svg">
<g clip-path="url(#clip0_318_935)">
<path d="M5.25 16.5825H3C2.60218 16.5825 2.22064 16.4245 1.93934 16.1432C1.65804 15.8619 1.5 15.4803 1.5 15.0825V9.83252C1.5 9.43469 1.65804 9.05316 1.93934 8.77186C2.22064 8.49056 2.60218 8.33252 3 8.33252H5.25M10.5 6.83252V3.83252C10.5 3.23578 10.2629 2.66349 9.84099 2.24153C9.41903 1.81957 8.84674 1.58252 8.25 1.58252L5.25 8.33252V16.5825H13.71C14.0717 16.5866 14.4228 16.4598 14.6984 16.2255C14.9741 15.9912 15.1558 15.6652 15.21 15.3075L16.245 8.55752C16.2776 8.34254 16.2631 8.12303 16.2025 7.91421C16.1419 7.70539 16.0366 7.51224 15.8939 7.34816C15.7512 7.18407 15.5746 7.05297 15.3762 6.96393C15.1778 6.8749 14.9624 6.83006 14.745 6.83252H10.5Z" stroke="#074EE8" stroke-width="2" stroke-linecap="round" stroke-linejoin="round"/>
</g>
<defs>
<clipPath id="clip0_318_935">
<rect width="18" height="18" fill="white" transform="translate(0 0.0825195)"/>
</clipPath>
</defs>
</svg>
