<svg width="24" height="24" viewBox="0 0 24 24" fill="none" xmlns="http://www.w3.org/2000/svg">
<path d="M12.5238 14.621V16.6114C11.6618 16.3067 10.7393 16.2132 9.83372 16.3388C8.92813 16.4645 8.0659 16.8056 7.31946 17.3335C6.57301 17.8615 5.96414 18.5608 5.54396 19.3728C5.12379 20.1848 4.90459 21.0857 4.90476 22L3 21.999C2.9997 20.8361 3.26564 19.6885 3.77743 18.6442C4.28922 17.5999 5.03327 16.6866 5.95259 15.9743C6.8719 15.262 7.94207 14.7697 9.0811 14.5349C10.2201 14.3001 11.3978 14.3293 12.5238 14.62V14.621ZM10.619 13.4286C7.4619 13.4286 4.90476 10.8714 4.90476 7.71429C4.90476 4.55714 7.4619 2 10.619 2C13.7762 2 16.3333 4.55714 16.3333 7.71429C16.3333 10.8714 13.7762 13.4286 10.619 13.4286ZM10.619 11.5238C12.7238 11.5238 14.4286 9.81905 14.4286 7.71429C14.4286 5.60952 12.7238 3.90476 10.619 3.90476C8.51429 3.90476 6.80952 5.60952 6.80952 7.71429C6.80952 9.81905 8.51429 11.5238 10.619 11.5238ZM16.3333 17.2381V14.381H18.2381V17.2381H21.0952V19.1429H18.2381V22H16.3333V19.1429H13.4762V17.2381H16.3333Z" fill="#273238"/>
</svg>
