<svg width="24" height="24" viewBox="0 0 24 24" fill="none" xmlns="http://www.w3.org/2000/svg">
<path d="M12 1.5C12.8233 1.49988 13.617 1.80757 14.2251 2.36263C14.8332 2.9177 15.2119 3.68005 15.2868 4.5H20.4C20.628 4.50007 20.8475 4.58669 21.0141 4.74237C21.1807 4.89804 21.282 5.11116 21.2976 5.33866C21.3131 5.56615 21.2417 5.79107 21.0978 5.96796C20.9539 6.14485 20.7483 6.26052 20.5224 6.2916L20.4 6.3H19.7004L18.18 19.476C18.1122 20.0609 17.8319 20.6005 17.3922 20.9921C16.9526 21.3837 16.3843 21.6001 15.7956 21.6H8.20435C7.61557 21.6001 7.0473 21.3837 6.60765 20.9921C6.16801 20.6005 5.88766 20.0609 5.81995 19.476L4.29835 6.3H3.59995C3.38247 6.29999 3.17234 6.22123 3.00843 6.07828C2.84453 5.93533 2.73793 5.73786 2.70835 5.5224L2.69995 5.4C2.69996 5.18252 2.77872 4.97239 2.92167 4.80848C3.06462 4.64458 3.26209 4.53798 3.47755 4.5084L3.59995 4.5H8.71315C8.788 3.68005 9.16667 2.9177 9.7748 2.36263C10.3829 1.80757 11.1766 1.49988 12 1.5V1.5ZM10.2 9C9.90595 9 9.65995 9.186 9.60955 9.4308L9.59995 9.5256V16.8756L9.60955 16.9692C9.65995 17.214 9.90595 17.4 10.2 17.4C10.494 17.4 10.74 17.214 10.7904 16.9692L10.8 16.8744V9.5268L10.7904 9.4308C10.74 9.1872 10.494 9 10.2 9ZM13.8 9C13.506 9 13.26 9.186 13.2096 9.4308L13.2 9.5256V16.8756L13.2096 16.9692C13.26 17.214 13.506 17.4 13.8 17.4C14.094 17.4 14.34 17.214 14.3904 16.9692L14.4 16.8744V9.5268L14.3904 9.4308C14.34 9.1872 14.094 9.0012 13.8 9.0012V9ZM12 3.3C11.274 3.3 10.668 3.816 10.53 4.5H13.47C13.3308 3.816 12.726 3.3 12 3.3V3.3Z" fill="black"/>
</svg>
