<svg width="24" height="24" viewBox="0 0 24 24" fill="none" xmlns="http://www.w3.org/2000/svg">
<g clip-path="url(#clip0_791_39281)">
<path fill-rule="evenodd" clip-rule="evenodd" d="M8.79999 0.8C8.79999 0.587827 8.88428 0.384344 9.03431 0.234315C9.18434 0.0842855 9.38782 0 9.59999 0L14.4 0C14.6122 0 14.8157 0.0842855 14.9657 0.234315C15.1157 0.384344 15.2 0.587827 15.2 0.8C15.2 1.01217 15.1157 1.21566 14.9657 1.36569C14.8157 1.51571 14.6122 1.6 14.4 1.6H12.8V3.392C14.507 3.52273 16.1535 4.08184 17.5872 5.0176C17.619 4.97324 17.6543 4.93151 17.6928 4.8928L19.2928 3.2928C19.3857 3.19993 19.4959 3.12626 19.6173 3.076C19.7386 3.02574 19.8687 2.99987 20 2.99987C20.1313 2.99987 20.2614 3.02574 20.3827 3.076C20.5041 3.12626 20.6143 3.19993 20.7072 3.2928C20.8001 3.38567 20.8737 3.49592 20.924 3.61727C20.9743 3.73861 21.0001 3.86866 21.0001 4C21.0001 4.13134 20.9743 4.26139 20.924 4.38273C20.8737 4.50408 20.8001 4.61433 20.7072 4.7072L19.1472 6.2672C20.8229 7.90096 21.8884 10.0594 22.1664 12.3832C22.4443 14.707 21.9178 17.0558 20.6746 19.0387C19.4314 21.0215 17.5465 22.5187 15.3338 23.2809C13.121 24.0431 10.714 24.0244 8.51337 23.2278C6.31277 22.4312 4.45144 20.9048 3.2393 18.9028C2.02716 16.9009 1.53735 14.5441 1.85145 12.2249C2.16554 9.90574 3.26457 7.76414 4.96554 6.1567C6.66652 4.54925 8.86679 3.57297 11.2 3.3904V1.6H9.59999C9.38782 1.6 9.18434 1.51571 9.03431 1.36569C8.88428 1.21566 8.79999 1.01217 8.79999 0.8V0.8ZM3.35999 13.6C3.35999 11.3085 4.27028 9.11091 5.89059 7.4906C7.51091 5.87028 9.70852 4.96 12 4.96C14.2915 4.96 16.4891 5.87028 18.1094 7.4906C19.7297 9.11091 20.64 11.3085 20.64 13.6C20.64 15.8915 19.7297 18.0891 18.1094 19.7094C16.4891 21.3297 14.2915 22.24 12 22.24C9.70852 22.24 7.51091 21.3297 5.89059 19.7094C4.27028 18.0891 3.35999 15.8915 3.35999 13.6V13.6ZM12 13.6V6.56C10.8422 6.55986 9.70224 6.84527 8.6811 7.39095C7.65996 7.93664 6.78917 8.72575 6.14586 9.68837C5.50255 10.651 5.1066 11.7574 4.99306 12.9096C4.87953 14.0619 5.05192 15.2243 5.49497 16.294C5.93802 17.3636 6.63805 18.3075 7.53305 19.042C8.42804 19.7765 9.49037 20.2789 10.6259 20.5048C11.7615 20.7306 12.9352 20.6729 14.0431 20.3367C15.1511 20.0006 16.159 19.3964 16.9776 18.5776L12 13.6Z" fill="black"/>
</g>
<defs>
<clipPath id="clip0_791_39281">
<rect width="24" height="24" fill="white"/>
</clipPath>
</defs>
</svg>
