<svg width="24" height="24" viewBox="0 0 24 24" fill="none" xmlns="http://www.w3.org/2000/svg">
<path d="M7.52999 11.47L4.80999 8.74998H15C16.3924 8.74998 17.7277 9.30311 18.7123 10.2877C19.6969 11.2722 20.25 12.6076 20.25 14C20.25 15.3924 19.6969 16.7277 18.7123 17.7123C17.7277 18.6969 16.3924 19.25 15 19.25H12V20.75H15C16.7902 20.75 18.5071 20.0388 19.773 18.773C21.0388 17.5071 21.75 15.7902 21.75 14C21.75 12.2098 21.0388 10.4929 19.773 9.22701C18.5071 7.96114 16.7902 7.24999 15 7.24999H4.81049L7.52999 4.52999L6.46999 3.46999L1.93999 7.99998L6.46999 12.53L7.52999 11.47Z" fill="#323F4F"/>
<path fill-rule="evenodd" clip-rule="evenodd" d="M8.23709 11.47L6.46999 13.2371L1.23288 7.99998L6.46999 2.76288L8.23706 4.52995L6.01744 6.74999H15C16.9228 6.74999 18.7669 7.51382 20.1265 8.87346C21.4861 10.2331 22.25 12.0772 22.25 14C22.25 15.9228 21.4861 17.7669 20.1265 19.1265C18.7669 20.4861 16.9228 21.25 15 21.25H11.5V18.75H15C16.2598 18.75 17.4679 18.2495 18.3587 17.3587C19.2495 16.4679 19.75 15.2598 19.75 14C19.75 12.7402 19.2495 11.532 18.3587 10.6412C17.4679 9.75043 16.2598 9.24998 15 9.24998H6.01709L8.23709 11.47ZM4.80999 8.74998H15C16.3924 8.74998 17.7277 9.30311 18.7123 10.2877C19.6969 11.2722 20.25 12.6076 20.25 14C20.25 15.3924 19.6969 16.7277 18.7123 17.7123C17.7277 18.6969 16.3924 19.25 15 19.25H12V20.75H15C16.7902 20.75 18.5071 20.0388 19.773 18.773C21.0388 17.5071 21.75 15.7902 21.75 14C21.75 12.2098 21.0388 10.4929 19.773 9.22701C18.5071 7.96114 16.7902 7.24999 15 7.24999H4.81049L7.52999 4.52999L6.46999 3.46999L1.93999 7.99998L6.46999 12.53L7.52999 11.47L4.80999 8.74998Z" fill="#323F4F"/>
</svg>
