<svg xmlns="http://www.w3.org/2000/svg" width="32" height="32" viewBox="0 0 32 32"><g transform="translate(-503 -2206)"><rect width="32" height="32" transform="translate(503 2206)" fill="none"/><g transform="translate(36.191 2141.6)"><path d="M15.375,3.375a12,12,0,1,0,12,12A12,12,0,0,0,15.375,3.375Zm6.144,8.683-7.713,7.748H13.8a1.042,1.042,0,0,1-.669.317,1.01,1.01,0,0,1-.675-.329L9.225,16.563a.23.23,0,0,1,0-.329l1.027-1.027a.223.223,0,0,1,.323,0l2.562,2.562,7.038-7.09a.228.228,0,0,1,.162-.069h0a.21.21,0,0,1,.162.069l1.01,1.044A.227.227,0,0,1,21.519,12.058Z" transform="translate(467.435 65.025)" fill="#006aff"/></g></g></svg>