<svg width="24" height="24" viewBox="0 0 24 24" fill="none" xmlns="http://www.w3.org/2000/svg">
<path d="M21.624 13.8539C21.8102 13.991 21.949 14.1827 22.0212 14.4023C22.0934 14.622 22.0953 14.8587 22.0268 15.0794C21.5513 16.5994 20.7427 17.994 19.6598 19.1617C19.5034 19.3293 19.2989 19.4444 19.0745 19.491C18.85 19.5376 18.6167 19.5135 18.4065 19.4219L16.9403 18.7784C16.78 18.7072 16.6054 18.6743 16.4303 18.6824C16.2557 18.6926 16.0861 18.744 15.9353 18.8324C15.7842 18.9199 15.656 19.0418 15.5613 19.1884C15.4665 19.3349 15.4078 19.5018 15.39 19.6754L15.2138 21.2729C15.1884 21.5004 15.0933 21.7144 14.9416 21.8857C14.7899 22.057 14.5889 22.1772 14.3663 22.2299C12.8093 22.6012 11.1863 22.6012 9.62925 22.2299C9.40812 22.1764 9.2087 22.0565 9.05784 21.8862C8.90698 21.7159 8.81193 21.5034 8.7855 21.2774L8.60925 19.6829C8.57878 19.4112 8.44929 19.1602 8.2455 18.9779C8.08619 18.8374 7.89035 18.7449 7.68064 18.7111C7.47094 18.6772 7.25593 18.7034 7.0605 18.7867L5.59425 19.4309C5.38468 19.5224 5.15193 19.5468 4.92795 19.5008C4.70396 19.4547 4.49972 19.3405 4.34325 19.1737C3.25855 18.0048 2.44881 16.6083 1.97325 15.0862C1.90507 14.8657 1.90713 14.6294 1.97915 14.4101C2.05118 14.1908 2.1896 13.9993 2.37525 13.8622L3.669 12.9059C3.81037 12.8023 3.92533 12.6668 4.00458 12.5104C4.08382 12.3541 4.12511 12.1812 4.12511 12.0059C4.12511 11.8307 4.08382 11.6578 4.00458 11.5015C3.92533 11.3451 3.81037 11.2096 3.669 11.1059L2.37525 10.1512C2.19059 10.0148 2.05277 9.82447 1.98077 9.60647C1.90878 9.38847 1.90615 9.1535 1.97325 8.93395C2.44868 7.41309 3.25818 6.01779 4.3425 4.8502C4.4475 4.73695 4.575 4.64695 4.7175 4.58695C4.85631 4.52816 5.00551 4.49786 5.15625 4.49786C5.307 4.49786 5.4562 4.52816 5.595 4.58695L7.05525 5.23045C7.2159 5.29945 7.39048 5.32988 7.565 5.31929C7.73952 5.3087 7.90913 5.25739 8.06026 5.16947C8.21138 5.08155 8.33982 4.95946 8.43529 4.81298C8.53075 4.6665 8.59059 4.49971 8.61 4.32595L8.787 2.73445C8.81275 2.50464 8.90952 2.28858 9.06385 2.11637C9.21818 1.94416 9.42238 1.82438 9.648 1.7737C10.4231 1.60268 11.2138 1.51171 12.0075 1.5022C12.7965 1.5112 13.5825 1.60195 14.3528 1.7737C14.5789 1.82402 14.7835 1.94402 14.9378 2.11678C15.0922 2.28953 15.1884 2.50636 15.213 2.7367L15.39 4.3267C15.4088 4.50019 15.4681 4.66684 15.5632 4.81317C15.6583 4.95949 15.7865 5.08139 15.9374 5.16901C16.0883 5.25662 16.2577 5.3075 16.4319 5.31752C16.6061 5.32754 16.7803 5.29643 16.9403 5.2267L18.3998 4.58395C18.6102 4.49237 18.8439 4.46815 19.0687 4.51461C19.2934 4.56107 19.4983 4.67593 19.6553 4.84345C20.7389 6.00983 21.5479 7.40387 22.023 8.92345C22.0917 9.14377 22.0898 9.38006 22.0176 9.59925C21.9453 9.81844 21.8064 10.0096 21.6203 10.1459L20.3303 11.1007C20.1883 11.2034 20.0727 11.3383 19.9929 11.4942C19.9131 11.6502 19.8713 11.8229 19.871 11.9981C19.8707 12.1733 19.9119 12.346 19.9912 12.5023C20.0705 12.6585 20.1857 12.7938 20.3273 12.8969L21.624 13.8539V13.8539ZM12 14.9999C12.7957 14.9999 13.5587 14.6839 14.1213 14.1213C14.6839 13.5587 15 12.7956 15 11.9999C15 11.2043 14.6839 10.4412 14.1213 9.87863C13.5587 9.31602 12.7957 8.99995 12 8.99995C11.2044 8.99995 10.4413 9.31602 9.87868 9.87863C9.31607 10.4412 9 11.2043 9 11.9999C9 12.7956 9.31607 13.5587 9.87868 14.1213C10.4413 14.6839 11.2044 14.9999 12 14.9999V14.9999Z" fill="#297373"/>
</svg>
