<svg xmlns="http://www.w3.org/2000/svg" width="60" height="60" viewBox="0 0 60 60"><rect width="60" height="60" fill="none"/><g transform="translate(5 5)"><path d="M22.11,18.35a8.627,8.627,0,0,0,.8-3.6A8.76,8.76,0,0,0,14.16,6a8.627,8.627,0,0,0-3.6.8Z" transform="translate(10.84 4)" fill="#e40000"/><path d="M27,2A25,25,0,1,0,52,27,25.009,25.009,0,0,0,27,2Zm0,32.5a24.867,24.867,0,0,0-15.35,5.3,19.908,19.908,0,0,1-.425-25.05l7.15,7.15a8.674,8.674,0,0,0,7.475,7.475l5.5,5.5A25.126,25.126,0,0,0,27,34.5Zm15.775,4.75L14.75,11.225A19.756,19.756,0,0,1,27,7,19.967,19.967,0,0,1,42.775,39.25Z" transform="translate(-2 -2)" fill="#e40000"/></g></svg>