<svg width="24" height="24" viewBox="0 0 24 24" fill="none" xmlns="http://www.w3.org/2000/svg">
<path d="M12.5238 14.621V22H3C2.9997 20.837 3.26564 19.6894 3.77743 18.6451C4.28922 17.6008 5.03327 16.6876 5.95259 15.9753C6.8719 15.263 7.94207 14.7706 9.0811 14.5359C10.2201 14.3011 11.3978 14.3302 12.5238 14.621V14.621ZM10.619 13.4286C7.4619 13.4286 4.90476 10.8714 4.90476 7.71429C4.90476 4.55714 7.4619 2 10.619 2C13.7762 2 16.3333 4.55714 16.3333 7.71429C16.3333 10.8714 13.7762 13.4286 10.619 13.4286ZM16.3333 17.2381V14.381H18.2381V17.2381H21.0952V19.1429H18.2381V22H16.3333V19.1429H13.4762V17.2381H16.3333Z" fill="#297373"/>
</svg>
