<svg xmlns="http://www.w3.org/2000/svg" width="32" height="32" viewBox="0 0 32 32"><g transform="translate(-503 -2206)"><rect width="32" height="32" transform="translate(503 2206)" fill="none"/><g transform="translate(506.771 2204.882)"><path d="M29.655,19.945H8.1a1.347,1.347,0,0,1,0-2.695H29.655a1.347,1.347,0,0,1,0,2.695Z" transform="translate(-7.988 -1.517)" fill="#273238"/><path d="M18.6,27.41a1.347,1.347,0,0,1-.953-2.3l8.03-8.03-8.03-8.03A1.347,1.347,0,1,1,19.55,7.145l8.983,8.983a1.347,1.347,0,0,1,0,1.905L19.55,27.015A1.343,1.343,0,0,1,18.6,27.41Z" transform="translate(-3.613)" fill="#273238"/></g></g></svg>