<svg width="24" height="24" viewBox="0 0 24 24" fill="none" xmlns="http://www.w3.org/2000/svg">
<path d="M11.9999 8.24991C11.0053 8.24991 10.0515 8.645 9.34824 9.34826C8.64498 10.0515 8.24989 11.0054 8.24989 11.9999C8.24989 12.9945 8.64498 13.9483 9.34824 14.6516C10.0515 15.3548 11.0053 15.7499 11.9999 15.7499C12.9944 15.7499 13.9483 15.3548 14.6515 14.6516C15.3548 13.9483 15.7499 12.9945 15.7499 11.9999C15.7499 11.0054 15.3548 10.0515 14.6515 9.34826C13.9483 8.645 12.9944 8.24991 11.9999 8.24991ZM9.74989 11.9999C9.74989 11.4032 9.98694 10.8309 10.4089 10.4089C10.8309 9.98697 11.4032 9.74991 11.9999 9.74991C12.5966 9.74991 13.1689 9.98697 13.5909 10.4089C14.0128 10.8309 14.2499 11.4032 14.2499 11.9999C14.2499 12.5967 14.0128 13.1689 13.5909 13.5909C13.1689 14.0129 12.5966 14.2499 11.9999 14.2499C11.4032 14.2499 10.8309 14.0129 10.4089 13.5909C9.98694 13.1689 9.74989 12.5967 9.74989 11.9999ZM9.62989 22.2209C10.4061 22.4062 11.2019 22.4999 11.9999 22.4999C12.7972 22.4987 13.5915 22.4043 14.3669 22.2187C14.5897 22.1662 14.7907 22.046 14.9425 21.8746C15.0942 21.7033 15.1892 21.4892 15.2144 21.2617L15.3899 19.6642C15.4068 19.4899 15.465 19.3222 15.5596 19.1748C15.6542 19.0275 15.7825 18.9048 15.9339 18.8168C16.0853 18.7289 16.2554 18.6783 16.4303 18.6691C16.6051 18.6599 16.7796 18.6925 16.9394 18.7642L18.4056 19.4062C18.6155 19.4985 18.849 19.5233 19.0736 19.4769C19.2982 19.4305 19.5027 19.3154 19.6589 19.1474C20.7423 17.9801 21.551 16.5853 22.0259 15.0652C22.094 14.8453 22.0919 14.6097 22.02 14.391C21.9481 14.1723 21.8099 13.9815 21.6246 13.8449L20.3279 12.8887C20.1863 12.7854 20.071 12.6502 19.9917 12.4939C19.9123 12.3377 19.8711 12.1648 19.8713 11.9896C19.8715 11.8143 19.9132 11.6416 19.993 11.4856C20.0727 11.3295 20.1882 11.1945 20.3301 11.0917L21.6201 10.1392C21.8065 10.0029 21.9455 9.81182 22.0178 9.59257C22.09 9.37333 22.0918 9.13697 22.0229 8.91666C21.5489 7.39596 20.7398 6.00096 19.6551 4.83441C19.4983 4.66674 19.2934 4.55182 19.0685 4.50548C18.8437 4.45914 18.61 4.48366 18.3996 4.57566L16.9401 5.21766C16.7802 5.2874 16.606 5.31851 16.4318 5.30849C16.2576 5.29846 16.0882 5.24759 15.9373 5.15997C15.7863 5.07236 15.6582 4.95046 15.5631 4.80413C15.468 4.65781 15.4087 4.49116 15.3899 4.31766L15.2129 2.72766C15.1881 2.49746 15.0918 2.2808 14.9375 2.10819C14.7832 1.93558 14.5786 1.8157 14.3526 1.76541C13.5825 1.59333 12.7965 1.50208 12.0074 1.49316C11.2136 1.50256 10.4229 1.5938 9.64789 1.76541C9.42186 1.81484 9.21712 1.93416 9.06271 2.10648C8.90831 2.27879 8.81206 2.49534 8.78764 2.72541L8.60989 4.31691C8.59047 4.49067 8.53063 4.65747 8.43517 4.80395C8.33971 4.95043 8.21127 5.07252 8.06014 5.16044C7.90901 5.24836 7.7394 5.29967 7.56488 5.31025C7.39036 5.32084 7.21578 5.29042 7.05514 5.22141L5.59564 4.57866C5.38505 4.48922 5.15212 4.46643 4.92819 4.51336C4.70426 4.56029 4.50009 4.67469 4.34314 4.84116C3.25836 6.00884 2.44858 7.40443 1.97314 8.92566C1.90547 9.14541 1.90781 9.38077 1.97983 9.59913C2.05186 9.81749 2.19 10.008 2.37514 10.1444L3.66889 11.0984C3.80982 11.2021 3.92439 11.3375 4.00336 11.4936C4.08232 11.6498 4.12346 11.8223 4.12346 11.9973C4.12346 12.1723 4.08232 12.3448 4.00336 12.5009C3.92439 12.6571 3.80982 12.7925 3.66889 12.8962L2.37514 13.8524C2.1893 13.989 2.05076 14.1803 1.97883 14.3994C1.9069 14.6186 1.90517 14.8547 1.97389 15.0749C2.44911 16.5971 3.25889 17.9937 4.34389 19.1624C4.44703 19.2733 4.57209 19.3616 4.71114 19.4216C4.85019 19.4816 5.00019 19.5121 5.15164 19.5112C5.30389 19.5112 5.45464 19.4797 5.59489 19.4189L7.06114 18.7747C7.22106 18.7056 7.39497 18.6749 7.56888 18.6853C7.74278 18.6956 7.91185 18.7466 8.06247 18.8341C8.2131 18.9216 8.3411 19.0433 8.43617 19.1893C8.53124 19.3353 8.59074 19.5015 8.60989 19.6747L8.78614 21.2692C8.81173 21.4954 8.90649 21.7083 9.05748 21.8788C9.20847 22.0492 9.40836 22.169 9.62989 22.2217V22.2209ZM13.7556 20.8214C12.5984 21.0588 11.4051 21.0588 10.2479 20.8214L10.1016 19.5164C10.0301 18.878 9.72572 18.2884 9.24664 17.8604C8.87155 17.5301 8.41072 17.3126 7.91732 17.233C7.42393 17.1534 6.91808 17.2149 6.45814 17.4104L5.25364 17.9354C4.47663 17.0457 3.87869 16.0143 3.49264 14.8979L4.56064 14.1089C4.89059 13.8658 5.1588 13.5485 5.34365 13.1827C5.52849 12.8169 5.62479 12.4128 5.62479 12.0029C5.62479 11.5931 5.52849 11.1889 5.34365 10.8231C5.1588 10.4573 4.89059 10.14 4.56064 9.89691L3.49489 9.11016C3.88139 7.99488 4.4793 6.96458 5.25589 6.07566L6.45589 6.60066C6.78664 6.74672 7.14433 6.82183 7.50589 6.82116C8.14975 6.81914 8.77042 6.58055 9.24985 6.15077C9.72928 5.72098 10.034 5.12998 10.1061 4.49016L10.2516 3.17991C10.8321 3.06741 11.4216 3.00741 12.0119 2.99991C12.5984 3.00741 13.1834 3.06741 13.7594 3.17991L13.8989 4.48491C13.9684 5.12515 14.2721 5.71709 14.7516 6.14691C15.127 6.47921 15.589 6.69796 16.0839 6.77763C16.5789 6.85731 17.0862 6.79463 17.5469 6.59691L18.7469 6.07191C19.5246 6.96058 20.1231 7.99125 20.5094 9.10716L19.4421 9.89166C19.1105 10.134 18.8407 10.4511 18.6547 10.8173C18.4687 11.1835 18.3718 11.5884 18.3718 11.9992C18.3718 12.4099 18.4687 12.8148 18.6547 13.181C18.8407 13.5472 19.1105 13.8644 19.4421 14.1067L20.5086 14.8942C20.1219 16.008 19.5249 17.0371 18.7499 17.9257L17.5499 17.4007C17.1744 17.2336 16.7646 17.1577 16.3542 17.1793C15.9437 17.2008 15.5442 17.3192 15.1883 17.5248C14.8323 17.7303 14.5301 18.0172 14.3063 18.3619C14.0824 18.7066 13.9433 19.0994 13.9004 19.5082L13.7556 20.8207V20.8214Z" fill="#273238"/>
</svg>
