<svg width="24" height="24" viewBox="0 0 24 24" fill="none" xmlns="http://www.w3.org/2000/svg">
<path d="M12.5 21.6875C10.0633 21.6875 7.72645 20.7195 6.00346 18.9965C4.28047 17.2736 3.3125 14.9367 3.3125 12.5C3.3125 10.0633 4.28047 7.72645 6.00346 6.00346C7.72645 4.28047 10.0633 3.3125 12.5 3.3125C14.9367 3.3125 17.2736 4.28047 18.9965 6.00346C20.7195 7.72645 21.6875 10.0633 21.6875 12.5C21.6875 14.9367 20.7195 17.2736 18.9965 18.9965C17.2736 20.7195 14.9367 21.6875 12.5 21.6875ZM12.5 23C15.2848 23 17.9555 21.8938 19.9246 19.9246C21.8938 17.9555 23 15.2848 23 12.5C23 9.71523 21.8938 7.04451 19.9246 5.07538C17.9555 3.10625 15.2848 2 12.5 2C9.71523 2 7.04451 3.10625 5.07538 5.07538C3.10625 7.04451 2 9.71523 2 12.5C2 15.2848 3.10625 17.9555 5.07538 19.9246C7.04451 21.8938 9.71523 23 12.5 23V23Z" fill="black"/>
<path d="M10.2307 8.6347C10.338 8.57943 10.4585 8.55484 10.579 8.56364C10.6994 8.57243 10.815 8.61428 10.9132 8.68457L15.5069 11.9658C15.592 12.0265 15.6614 12.1067 15.7092 12.1996C15.757 12.2925 15.782 12.3955 15.782 12.5C15.782 12.6045 15.757 12.7075 15.7092 12.8004C15.6614 12.8933 15.592 12.9735 15.5069 13.0342L10.9132 16.3154C10.8151 16.3857 10.6995 16.4275 10.5791 16.4363C10.4588 16.4451 10.3383 16.4205 10.231 16.3653C10.1237 16.3101 10.0337 16.2264 9.97089 16.1233C9.90808 16.0203 9.8749 15.9019 9.875 15.7813V9.21876C9.87487 9.09812 9.90801 8.97978 9.97076 8.87674C10.0335 8.7737 10.1234 8.68995 10.2307 8.6347V8.6347Z" fill="black"/>
</svg>
