<svg width="40" height="40" viewBox="0 0 40 40" fill="none" xmlns="http://www.w3.org/2000/svg">
<rect width="40" height="40" rx="6" fill="#074EE8"/>
<path d="M17.2999 3.79981C15.2595 3.79902 13.2543 4.33187 11.4834 5.34549C9.71245 6.35911 8.23742 7.81825 7.20467 9.57807C6.17193 11.3379 5.61737 13.3372 5.59605 15.3776C5.57473 17.4179 6.08739 19.4284 7.08314 21.2094L5.65214 24.957C5.53304 25.2685 5.50282 25.607 5.56488 25.9347C5.62693 26.2624 5.77881 26.5664 6.00356 26.8128C6.22832 27.0593 6.51712 27.2384 6.83775 27.3302C7.15837 27.4221 7.49821 27.423 7.81934 27.333L12.2959 26.0784C13.8817 26.8276 15.6155 27.2108 17.3693 27.1996C19.1231 27.1883 20.8519 26.7829 22.4278 26.0134C24.0038 25.2439 25.3866 24.13 26.474 22.7539C27.5614 21.3779 28.3255 19.775 28.7099 18.0639C29.0942 16.3527 29.0889 14.577 28.6945 12.8681C28.3 11.1593 27.5264 9.56095 26.4308 8.1914C25.3353 6.82184 23.9459 5.71609 22.3654 4.95593C20.7849 4.19577 19.0538 3.80066 17.2999 3.79981ZM17.2855 10.8216C16.6411 10.9476 15.9355 11.3652 15.3811 12.3444C15.3228 12.4472 15.2447 12.5375 15.1514 12.6102C15.0581 12.6829 14.9514 12.7364 14.8374 12.7678C14.7234 12.7993 14.6044 12.8079 14.487 12.7933C14.3697 12.7788 14.2564 12.7412 14.1535 12.6828C14.0507 12.6244 13.9604 12.5464 13.8877 12.4531C13.8151 12.3598 13.7615 12.2531 13.7301 12.1391C13.6987 12.0251 13.69 11.906 13.7046 11.7887C13.7192 11.6713 13.7568 11.558 13.8151 11.4552C14.6089 10.0584 15.7375 9.28981 16.9399 9.05581C18.0587 8.84432 19.2159 9.07743 20.1655 9.70561C21.0367 10.2816 21.7405 11.223 21.7621 12.3516C21.7855 13.5306 21.0691 14.5944 19.7479 15.3756C18.8515 15.9048 18.5023 16.2648 18.3529 16.5042C18.2269 16.7058 18.1999 16.8894 18.1999 17.2998C18.1999 17.5385 18.1051 17.7674 17.9363 17.9362C17.7676 18.105 17.5386 18.1998 17.2999 18.1998C17.0612 18.1998 16.8323 18.105 16.6635 17.9362C16.4948 17.7674 16.3999 17.5385 16.3999 17.2998C16.3999 16.8102 16.4251 16.2018 16.8265 15.5538C17.2045 14.9472 17.8507 14.4072 18.8335 13.8258C19.7965 13.2552 19.9711 12.7134 19.9657 12.3894C19.9585 12.0168 19.7101 11.5614 19.1737 11.2068C18.6184 10.8394 17.9423 10.7013 17.2873 10.8216H17.2855ZM17.7481 22.6998C17.3901 22.6998 17.0467 22.5576 16.7936 22.3044C16.5404 22.0512 16.3981 21.7078 16.3981 21.3498C16.3981 20.9918 16.5404 20.6484 16.7936 20.3952C17.0467 20.142 17.3901 19.9998 17.7481 19.9998C18.1062 19.9998 18.4496 20.142 18.7027 20.3952C18.9559 20.6484 19.0981 20.9918 19.0981 21.3498C19.0981 21.7078 18.9559 22.0512 18.7027 22.3044C18.4496 22.5576 18.1062 22.6998 17.7481 22.6998ZM13.7629 28.5318C14.8602 29.8095 16.221 30.8347 17.7518 31.5369C19.2827 32.2391 20.9473 32.6017 22.6315 32.5998C24.4189 32.5998 26.1163 32.1984 27.6355 31.4784L32.1103 32.733C32.4315 32.823 32.7713 32.8221 33.0919 32.7302C33.4126 32.6384 33.7014 32.4593 33.9261 32.2128C34.1509 31.9664 34.3028 31.6624 34.3648 31.3347C34.4269 31.007 34.3967 30.6685 34.2775 30.357L32.8465 26.6094C33.8226 24.8649 34.3339 22.8988 34.3315 20.8998C34.3315 17.4078 32.8015 14.2722 30.3733 12.1284C30.6396 13.1651 30.7816 14.2298 30.7963 15.3C31.8907 16.893 32.5315 18.8226 32.5315 20.8998C32.5315 22.7898 32.0023 24.5556 31.0825 26.0586L30.8521 26.4366L32.5981 30.9996L27.4501 29.5596L27.1351 29.718C25.7851 30.4092 24.2551 30.7998 22.6315 30.7998C20.5902 30.8029 18.5983 30.1721 16.9309 28.9944C15.8603 28.9664 14.7969 28.8111 13.7629 28.5318Z" fill="white"/>
</svg>
